<svg xmlns="http://www.w3.org/2000/svg" xmlns:xlink="http://www.w3.org/1999/xlink" width="82.329" height="77.043" viewBox="0 0 82.329 77.043">
  <defs>
    <clipPath id="clip-path">
      <rect id="Rectangle_28" data-name="Rectangle 28" width="78.004" height="35.119" fill="#fff" stroke="#fff" stroke-linecap="square" stroke-width="1"/>
    </clipPath>
  </defs>
  <g id="Group_2" data-name="Group 2" transform="translate(59.754 77.043) rotate(-140)">
    <g id="Group_1" data-name="Group 1" clip-path="url(#clip-path)">
      <path id="Path_12" data-name="Path 12" d="M76.359,20.105Q75.1,25.7,73.846,31.288c-1.639-5.032-3.261-10.12-5.8-14.769a31.17,31.17,0,0,0-11.2-11.746C46.667-1.411,34.177-1,23.226,2.678A36.5,36.5,0,0,0,6.9,13.515a30.454,30.454,0,0,0-4.988,8.54A23.341,23.341,0,0,0,.04,32.148c.077,1.09,1.757,1.1,1.68,0-.4-5.657,2.1-11.9,5.473-16.323A33.77,33.77,0,0,1,20.461,5.56,47.381,47.381,0,0,1,37.337,1.666,34.1,34.1,0,0,1,54.77,5.543,29.332,29.332,0,0,1,66.448,17.1a69.942,69.942,0,0,1,5.286,13.111q-3.7-4.408-7.4-8.816c-.7-.839-1.885.372-1.188,1.2L73.442,34.868a.84.84,0,0,0,1.4-.375q1.566-6.968,3.134-13.934c.24-1.07-1.378-1.524-1.62-.454" transform="translate(0.001 0)" fill="#fff" stroke="#fff" stroke-linecap="square" stroke-width="1"/>
    </g>
  </g>
</svg>
